<?xml version="1.0" encoding="iso-8859-1"?>
<!-- Generator: Adobe Illustrator 25.2.0, SVG Export Plug-In . SVG Version: 6.00 Build 0)  -->
<svg version="1.1" id="Layer_1" xmlns="http://www.w3.org/2000/svg" xmlns:xlink="http://www.w3.org/1999/xlink" x="0px" y="0px"
	 viewBox="0 0 1000 1000" style="enable-background:new 0 0 1000 1000;" xml:space="preserve">
<g id="watermark_1_">
	<g>
		<g id="watermark" style="opacity:0.61;">
			<g>
				<g>
					<g>
						<g>
							<polygon style="fill:#606060;" points="421.112,924.528 409.007,952.493 402.615,952.493 390.55,924.528 397.541,924.528 
								406.051,944.503 414.68,924.528 							"/>
						</g>
						<g>
							<path style="fill:#606060;" d="M442.323,943.185h-16.26c0.599,2.677,2.876,4.315,6.153,4.315
								c2.277,0,3.915-0.679,5.393-2.077l3.316,3.595c-1.997,2.278-4.994,3.476-8.868,3.476c-7.431,0-12.265-4.674-12.265-11.067
								c0-6.432,4.914-11.066,11.466-11.066c6.312,0,11.186,4.235,11.186,11.146C442.443,941.987,442.363,942.666,442.323,943.185
								 M425.983,939.55h10.587c-0.44-2.717-2.478-4.475-5.274-4.475C428.46,935.075,426.422,936.793,425.983,939.55"/>
						</g>
						<g>
							<path style="fill:#606060;" d="M444.997,941.427c0-6.471,4.994-11.066,11.985-11.066c4.514,0,8.07,1.958,9.628,5.473
								l-4.834,2.597c-1.159-2.038-2.877-2.956-4.834-2.956c-3.156,0-5.633,2.198-5.633,5.952c0,3.756,2.477,5.953,5.633,5.953
								c1.958,0,3.675-0.879,4.834-2.956l4.834,2.637c-1.558,3.436-5.114,5.433-9.628,5.433
								C449.991,952.493,444.997,947.899,444.997,941.427"/>
						</g>
						<g>
							<path style="fill:#606060;" d="M484.386,951.135c-1.279,0.919-3.157,1.358-5.074,1.358c-5.073,0-8.03-2.597-8.03-7.711
								v-8.829h-3.316v-4.794h3.316v-5.233h6.232v5.233h5.353v4.794h-5.353v8.749c0,1.837,0.998,2.836,2.677,2.836
								c0.918,0,1.837-0.279,2.517-0.799L484.386,951.135z"/>
						</g>
					</g>
					<g>
						<path style="fill:#606060;" d="M527.157,930.68v5.753c-0.519-0.04-0.918-0.08-1.398-0.08c-3.435,0-5.713,1.877-5.713,5.993
							v10.147h-6.232V931h5.953v2.836C521.284,931.759,523.841,930.68,527.157,930.68"/>
					</g>
					<g>
						<path style="fill:#606060;" d="M528.954,949.257l2.197-4.874c2.357,1.718,5.873,2.916,9.229,2.916
							c3.836,0,5.393-1.278,5.393-2.996c0-5.233-16.26-1.638-16.26-12.025c0-4.754,3.835-8.709,11.785-8.709
							c3.516,0,7.112,0.839,9.708,2.477l-1.998,4.914c-2.597-1.478-5.273-2.197-7.75-2.197c-3.835,0-5.313,1.438-5.313,3.196
							c0,5.154,16.259,1.598,16.259,11.865c0,4.675-3.875,8.67-11.865,8.67C535.905,952.493,531.43,951.175,528.954,949.257"/>
					</g>
					<g>
						<path style="fill:#606060;" d="M577.131,943.185h-16.26c0.599,2.677,2.876,4.315,6.153,4.315c2.277,0,3.915-0.679,5.393-2.077
							l3.316,3.595c-1.998,2.278-4.994,3.476-8.869,3.476c-7.431,0-12.265-4.674-12.265-11.067c0-6.432,4.914-11.066,11.466-11.066
							c6.312,0,11.187,4.235,11.187,11.146C577.251,941.987,577.171,942.666,577.131,943.185 M560.791,939.55h10.587
							c-0.439-2.717-2.477-4.475-5.273-4.475C563.268,935.075,561.231,936.793,560.791,939.55"/>
					</g>
					<g>
						<path style="fill:#606060;" d="M602.337,943.185h-16.26c0.599,2.677,2.876,4.315,6.152,4.315c2.277,0,3.915-0.679,5.393-2.077
							l3.316,3.595c-1.998,2.278-4.994,3.476-8.869,3.476c-7.431,0-12.265-4.674-12.265-11.067c0-6.432,4.914-11.066,11.466-11.066
							c6.312,0,11.186,4.235,11.186,11.146C602.457,941.987,602.377,942.666,602.337,943.185 M585.997,939.55h10.587
							c-0.439-2.717-2.477-4.475-5.273-4.475C588.474,935.075,586.437,936.793,585.997,939.55"/>
					</g>
					<g>
						<polygon style="fill:#606060;" points="615.838,944.064 612.841,947.02 612.841,952.493 606.61,952.493 606.61,922.85 
							612.841,922.85 612.841,939.629 621.95,931 629.381,931 620.432,940.108 630.18,952.493 622.63,952.493 						"/>
					</g>
					<g>
						<path style="fill:#606060;" d="M514.371,955.416L514.371,955.416l-6.226-6.226c-0.947,1.107-2.075,2.054-3.339,2.796
							c-0.201,0.15-0.406,0.296-0.616,0.433l6.589,6.589c0.992,0.992,2.601,0.992,3.592,0
							C515.363,958.017,515.363,956.408,514.371,955.416"/>
					</g>
					<g>
						<path style="fill:#F84D10;" d="M499.965,929.04c0.48-0.377,1.077-0.612,1.735-0.612c0.091,0,0.181,0.005,0.27,0.013
							c-0.466-0.34-1.041-0.542-1.663-0.542c-0.859,0-1.619,0.392-2.137,0.998c-0.111,0-0.218,0.013-0.328,0.016
							c0.086-0.167,0.139-0.354,0.139-0.555c0-0.509-0.311-0.945-0.752-1.13c0.19,0.275,0.301,0.608,0.301,0.968
							c0,0.267-0.066,0.517-0.176,0.742c-6.119,0.437-10.95,5.527-10.95,11.757c0,6.516,5.283,11.799,11.799,11.799
							c6.517,0,11.8-5.283,11.8-11.799C510.004,934.777,505.644,929.892,499.965,929.04 M495.61,932.114
							c0.947,0,1.837,0.244,2.611,0.674c0.813-0.532,1.785-0.842,2.828-0.842c1.547,0,2.934,0.68,3.883,1.756
							c-0.948-0.826-2.186-1.328-3.541-1.328c-0.977,0-1.895,0.261-2.686,0.716c-0.172,0.1-0.34,0.208-0.499,0.326
							c-0.142-0.104-0.29-0.203-0.444-0.292c-0.803-0.476-1.741-0.749-2.743-0.749c-0.653,0-1.279,0.117-1.86,0.331
							C493.895,932.328,494.727,932.114,495.61,932.114 M503.858,941.785c0.25,0.664,0.394,1.38,0.394,2.131
							c0,3.34-2.707,6.047-6.047,6.047c-3.339,0-6.047-2.707-6.047-6.047c0-0.751,0.143-1.467,0.394-2.131
							c-1.35-0.831-2.253-2.317-2.253-4.019c0-2.607,2.114-4.72,4.72-4.72c1.23,0,2.346,0.474,3.186,1.244
							c0.84-0.77,1.956-1.244,3.186-1.244c2.607,0,4.72,2.113,4.72,4.72C506.111,939.467,505.208,940.954,503.858,941.785"/>
					</g>
					<g>
						<path style="fill:#444444;" d="M503.627,937.351c0,1.082-0.879,1.961-1.961,1.961c-1.082,0-1.961-0.879-1.961-1.961
							s0.879-1.961,1.961-1.961c0.22,0,0.428,0.037,0.625,0.102c-0.065,0.135-0.099,0.287-0.099,0.445
							c0,0.595,0.482,1.076,1.077,1.076c0.11,0,0.217-0.017,0.318-0.048C503.613,937.089,503.627,937.218,503.627,937.351"/>
					</g>
					<g>
						<path style="fill:#444444;" d="M496.201,937.351c0,0.818-0.665,1.482-1.483,1.482c-0.818,0-1.483-0.664-1.483-1.482
							s0.665-1.483,1.483-1.483c0.166,0,0.324,0.027,0.473,0.077c-0.049,0.102-0.075,0.217-0.075,0.337
							c0,0.449,0.364,0.814,0.814,0.814c0.083,0,0.164-0.013,0.241-0.036C496.191,937.153,496.201,937.251,496.201,937.351"/>
					</g>
					<g>
						<g>
							<g>
								<rect x="484.56" y="939.024" style="fill:#606060;" width="1.34" height="1.34"/>
							</g>
							<g>
								<rect x="510.51" y="939.024" style="fill:#606060;" width="1.34" height="1.34"/>
							</g>
							<g>
								<path style="fill:#606060;" d="M511.332,939.572h-0.304c0-7.07-5.752-12.823-12.823-12.823
									c-7.07,0-12.823,5.753-12.823,12.823h-0.305c0-3.506,1.365-6.803,3.845-9.282c2.479-2.48,5.776-3.845,9.282-3.845
									c3.507,0,6.803,1.365,9.283,3.845C509.966,932.769,511.332,936.065,511.332,939.572"/>
							</g>
						</g>
						<g>
							<rect x="497.534" y="925.927" style="fill:#606060;" width="1.34" height="1.34"/>
						</g>
						<g>
							<rect x="489.006" y="926.445" style="fill:#606060;" width="18.397" height="0.304"/>
						</g>
						<g>
							<path style="fill:#606060;" d="M489.494,926.658c0,0.235-0.191,0.427-0.427,0.427c-0.235,0-0.426-0.191-0.426-0.427
								s0.191-0.427,0.426-0.427C489.303,926.231,489.494,926.422,489.494,926.658"/>
						</g>
						<g>
							<path style="fill:#606060;" d="M507.829,926.658c0,0.235-0.191,0.427-0.427,0.427c-0.235,0-0.426-0.191-0.426-0.427
								s0.191-0.427,0.426-0.427C507.639,926.231,507.829,926.422,507.829,926.658"/>
						</g>
					</g>
				</g>
				<g>
					<path style="fill:#606060;" d="M640.109,951.171c0,3.395-5.146,3.395-5.146,0C634.963,947.779,640.109,947.779,640.109,951.171
						z"/>
				</g>
				<g>
					<g>
						<g>
							<path style="fill:#606060;" d="M307.849,936.236l3.859,13.253l4.038-13.253h4.823l-6.145,17.721h-5.073l-1.822-5.216
								l-1.572-5.896l-1.571,5.896l-1.822,5.216h-5.073l-6.18-17.721h4.858l4.038,13.253l3.822-13.253H307.849z"/>
						</g>
						<g>
							<path style="fill:#606060;" d="M340.449,936.236l3.859,13.253l4.038-13.253h4.823l-6.145,17.721h-5.073l-1.822-5.216
								l-1.571-5.896l-1.572,5.896l-1.822,5.216h-5.073l-6.18-17.721h4.858l4.038,13.253l3.822-13.253H340.449z"/>
						</g>
						<g>
							<path style="fill:#606060;" d="M373.048,936.236l3.859,13.253l4.038-13.253h4.823l-6.145,17.721h-5.073l-1.822-5.216
								l-1.572-5.896l-1.571,5.896l-1.822,5.216h-5.073l-6.18-17.721h4.858l4.038,13.253l3.822-13.253H373.048z"/>
						</g>
					</g>
					<g>
						<path style="fill:#606060;" d="M393.123,951.412c0,3.395-5.146,3.395-5.146,0C387.977,948.02,393.123,948.02,393.123,951.412z
							"/>
					</g>
					<g>
						<path style="fill:#606060;" d="M658.296,951.171c-2.036,2.001-4.177,2.787-6.787,2.787c-5.108,0-9.361-3.072-9.361-9.323
							c0-6.251,4.253-9.326,9.361-9.326c2.502,0,4.43,0.716,6.359,2.609l-2.752,2.894c-1.036-0.931-2.321-1.393-3.534-1.393
							c-2.929,0-5.073,2.144-5.073,5.216c0,3.357,2.286,5.143,5,5.143c1.393,0,2.787-0.393,3.857-1.463L658.296,951.171z"/>
					</g>
					<g>
						<path style="fill:#606060;" d="M678.097,944.777c0,5.073-3.465,9.181-9.181,9.181c-5.716,0-9.146-4.107-9.146-9.181
							c0-5.038,3.502-9.181,9.111-9.181S678.097,939.739,678.097,944.777z M664.128,944.777c0,2.679,1.609,5.181,4.788,5.181
							c3.179,0,4.788-2.502,4.788-5.181c0-2.644-1.859-5.216-4.788-5.216C665.772,939.561,664.128,942.133,664.128,944.777z"/>
					</g>
					<g>
						<path style="fill:#606060;" d="M692.828,953.958v-9.431c0-2.324-1.216-4.43-3.61-4.43c-2.356,0-3.75,2.106-3.75,4.43v9.431
							h-4.36v-17.649h4.038l0.323,2.144c0.928-1.786,2.964-2.429,4.643-2.429c2.109,0,4.218,0.858,5.216,3.287
							c1.574-2.502,3.61-3.217,5.896-3.217c5,0,7.467,3.075,7.467,8.36v9.504h-4.361v-9.504c0-2.321-0.963-4.288-3.322-4.288
							c-2.356,0-3.822,2.036-3.822,4.36v9.431H692.828z"/>
					</g>
				</g>
			</g>
		</g>
		<g style="opacity:0.61;">
			<g>
				<g>
					<path style="fill:#606060;" d="M708.973,859.493c-0.013-2.665-2.087-4.618-4.766-4.659c-2.011-0.031-1.81,0.261-1.815-1.887
						c-0.006-2.389-0.015-4.778,0.006-7.166c0.007-0.824-0.243-1.505-0.787-2.125c-5.098-5.81-10.184-11.63-15.281-17.441
						c-0.262-0.299-0.599-0.532-0.901-0.796c-13.528,0-27.055,0-40.583,0c-1.729,0.639-2.482,1.889-2.478,3.72
						c0.021,8.159,0.009,16.318,0.008,24.478c0,1.21-0.007,1.281-1.197,1.201c-3.258-0.221-5.477,2.147-5.436,5.426
						c0.096,7.568,0.028,15.137,0.031,22.706c0.001,3.44,1.887,5.32,5.333,5.331c1.267,0.004,1.268,0.004,1.268,1.306
						c0.001,4.831-0.002,9.662,0.002,14.493c0.002,2.595,1.262,3.855,3.85,3.855c17.446,0.001,34.891,0.001,52.337,0
						c2.543,0,3.822-1.268,3.824-3.799c0.005-4.912,0.001-9.823,0.003-14.735c0-1.115,0.005-1.112,1.131-1.121
						c0.589-0.005,1.177,0.017,1.761-0.127c2.169-0.535,3.68-2.273,3.689-4.503C709.007,875.597,709.011,867.545,708.973,859.493z
						 M647.034,828.716c11.619-0.001,23.237-0.001,34.856,0c1.193,0,1.206,0.015,1.207,1.222c0.001,4.884-0.002,9.767,0.002,14.651
						c0.001,1.765,0.543,2.305,2.307,2.306c4.159,0.003,8.318,0,12.477,0.003c0.997,0.001,1.044,0.046,1.046,1.052
						c0.006,1.932,0.005,3.864,0,5.796c-0.003,1.038-0.051,1.085-1.098,1.085c-8.479,0.002-16.958,0.001-25.438,0.001
						c-8.452,0-16.905,0-25.357,0c-1.198,0-1.202-0.003-1.202-1.221c-0.001-7.889-0.001-15.778,0-23.667
						C645.835,828.724,645.844,828.716,647.034,828.716z M697.728,903.645c-8.454,0.001-16.908,0.001-25.362,0.001
						c-8.427,0-16.854,0.001-25.281,0c-1.245,0-1.249-0.003-1.249-1.262c-0.001-4.348-0.003-8.696,0.001-13.043
						c0.001-1.01,0.051-1.059,1.041-1.059c16.989-0.002,33.977-0.002,50.966,0c1.041,0,1.086,0.044,1.087,1.094
						c0.003,4.348,0.003,8.696,0.001,13.043C698.931,903.634,698.92,903.645,697.728,903.645z"/>
				</g>
				<g>
					<g>
						<rect x="668.546" y="828.478" style="fill:#606060;" width="3.825" height="2.295"/>
					</g>
					<g>
						<rect x="664.722" y="830.773" style="fill:#606060;" width="3.825" height="2.295"/>
					</g>
					<g>
						<rect x="668.546" y="833.068" style="fill:#606060;" width="3.825" height="2.295"/>
					</g>
					<g>
						<rect x="664.722" y="835.363" style="fill:#606060;" width="3.825" height="2.295"/>
					</g>
					<g>
						<rect x="668.546" y="837.658" style="fill:#606060;" width="3.825" height="2.295"/>
					</g>
					<g>
						<rect x="664.722" y="839.953" style="fill:#606060;" width="3.825" height="2.295"/>
					</g>
					<g>
						<rect x="668.546" y="842.247" style="fill:#606060;" width="3.825" height="2.295"/>
					</g>
					<g>
						<rect x="664.722" y="844.542" style="fill:#606060;" width="3.825" height="2.295"/>
					</g>
					<g>
						<rect x="668.546" y="846.837" style="fill:#606060;" width="3.825" height="2.295"/>
					</g>
					<g>
						<rect x="664.722" y="849.132" style="fill:#606060;" width="3.825" height="2.295"/>
					</g>
					<g>
						<rect x="668.546" y="851.427" style="fill:#606060;" width="3.825" height="2.295"/>
					</g>
					<g>
						<rect x="664.722" y="853.722" style="fill:#606060;" width="3.825" height="2.295"/>
					</g>
				</g>
			</g>
			<g>
				<path style="fill:#606060;" d="M364.231,859.493c-0.013-2.665-2.087-4.618-4.766-4.659c-2.011-0.031-1.81,0.261-1.815-1.887
					c-0.006-2.389-0.015-4.778,0.006-7.166c0.007-0.824-0.243-1.505-0.787-2.125c-5.098-5.81-10.184-11.63-15.281-17.441
					c-0.262-0.299-0.599-0.532-0.901-0.796c-13.528,0-27.055,0-40.583,0c-1.729,0.639-2.482,1.889-2.478,3.72
					c0.021,8.159,0.009,16.318,0.008,24.478c0,1.21-0.007,1.281-1.197,1.201c-3.258-0.221-5.477,2.147-5.436,5.426
					c0.096,7.568,0.028,15.137,0.031,22.706c0.001,3.44,1.887,5.32,5.333,5.331c1.267,0.004,1.268,0.004,1.268,1.306
					c0.001,4.831-0.002,9.662,0.002,14.493c0.002,2.595,1.262,3.855,3.85,3.855c17.446,0.001,34.891,0.001,52.337,0
					c2.543,0,3.822-1.268,3.824-3.799c0.005-4.912,0.001-9.823,0.003-14.735c0-1.115,0.004-1.112,1.131-1.121
					c0.589-0.005,1.177,0.017,1.761-0.127c2.169-0.535,3.68-2.273,3.689-4.503C364.264,875.597,364.269,867.545,364.231,859.493z
					 M302.292,828.716c11.619-0.001,23.237-0.001,34.856,0c1.192,0,1.206,0.015,1.207,1.222c0.001,4.884-0.001,9.767,0.002,14.651
					c0.001,1.765,0.543,2.305,2.307,2.306c4.159,0.003,8.318,0,12.477,0.003c0.997,0.001,1.044,0.046,1.046,1.052
					c0.006,1.932,0.005,3.864,0,5.796c-0.003,1.038-0.051,1.085-1.098,1.085c-8.479,0.002-16.958,0.001-25.438,0.001
					c-8.452,0-16.905,0-25.357,0c-1.198,0-1.202-0.003-1.202-1.221c-0.001-7.889-0.001-15.778,0-23.667
					C301.093,828.724,301.102,828.716,302.292,828.716z M352.985,903.645c-8.454,0.001-16.908,0.001-25.362,0.001
					c-8.427,0-16.854,0.001-25.281,0c-1.245,0-1.249-0.003-1.249-1.262c-0.001-4.348-0.003-8.696,0.001-13.043
					c0.001-1.01,0.051-1.059,1.041-1.059c16.989-0.002,33.977-0.002,50.966,0c1.041,0,1.086,0.044,1.087,1.094
					c0.003,4.348,0.003,8.696,0.001,13.043C354.188,903.634,354.177,903.645,352.985,903.645z"/>
			</g>
			<g>
				<path style="fill:#FFFFFF;" d="M303.581,879.891v-17.193h6.051c0.816,0,1.581,0.132,2.293,0.396
					c0.712,0.264,1.333,0.636,1.861,1.117c0.527,0.48,0.944,1.053,1.248,1.717c0.304,0.665,0.456,1.397,0.456,2.198
					c0,0.816-0.152,1.557-0.456,2.221s-0.721,1.236-1.248,1.717c-0.529,0.48-1.149,0.852-1.861,1.117
					c-0.713,0.264-1.477,0.396-2.293,0.396h-2.809v6.315H303.581z M309.68,870.503c0.848,0,1.489-0.241,1.921-0.721
					c0.432-0.48,0.648-1.032,0.648-1.656c0-0.304-0.052-0.601-0.156-0.889c-0.105-0.288-0.264-0.54-0.48-0.756
					c-0.216-0.217-0.484-0.388-0.805-0.516c-0.32-0.129-0.696-0.193-1.128-0.193h-2.857v4.731H309.68z"/>
				<path style="fill:#FFFFFF;" d="M317.796,862.699h3.77l6.916,11.526h0.191l-0.191-3.314v-8.212h3.217v17.193h-3.409l-7.3-12.174
					h-0.191l0.191,3.314v8.86h-3.193V862.699z"/>
				<path style="fill:#FFFFFF;" d="M343.08,870.454h8.429c0.048,0.193,0.087,0.425,0.12,0.697c0.031,0.272,0.048,0.544,0.048,0.816
					c0,1.104-0.167,2.145-0.504,3.121c-0.336,0.977-0.865,1.849-1.585,2.618c-0.768,0.817-1.69,1.449-2.761,1.897
					c-1.073,0.448-2.298,0.672-3.674,0.672c-1.249,0-2.426-0.224-3.53-0.672c-1.104-0.447-2.065-1.072-2.881-1.873
					c-0.816-0.8-1.465-1.749-1.945-2.845c-0.48-1.097-0.72-2.293-0.72-3.59c0-1.296,0.24-2.493,0.72-3.589s1.129-2.045,1.945-2.845
					c0.816-0.8,1.777-1.425,2.881-1.873c1.104-0.448,2.281-0.672,3.53-0.672c1.392,0,2.637,0.24,3.734,0.72
					c1.097,0.48,2.036,1.144,2.821,1.993l-2.232,2.185c-0.562-0.592-1.185-1.044-1.874-1.357s-1.513-0.468-2.473-0.468
					c-0.786,0-1.53,0.14-2.234,0.421c-0.705,0.28-1.321,0.676-1.85,1.188c-0.527,0.512-0.949,1.133-1.259,1.861
					c-0.312,0.728-0.469,1.541-0.469,2.437c0,0.897,0.157,1.709,0.469,2.438c0.311,0.728,0.735,1.349,1.271,1.861
					c0.536,0.512,1.156,0.909,1.862,1.188c0.704,0.281,1.457,0.421,2.258,0.421c0.911,0,1.684-0.132,2.317-0.396
					c0.632-0.264,1.171-0.604,1.62-1.021c0.321-0.288,0.598-0.652,0.829-1.092s0.412-0.932,0.541-1.477h-5.404V870.454z"/>
			</g>
			<g>
				<path style="fill:#606060;" d="M443.437,859.493c-0.013-2.665-2.087-4.618-4.766-4.659c-2.011-0.031-1.81,0.261-1.815-1.887
					c-0.006-2.389-0.015-4.778,0.006-7.166c0.007-0.824-0.243-1.505-0.787-2.125c-5.098-5.81-10.184-11.63-15.281-17.441
					c-0.262-0.299-0.599-0.532-0.901-0.796c-13.528,0-27.055,0-40.583,0c-1.729,0.639-2.482,1.889-2.478,3.72
					c0.021,8.159,0.009,16.318,0.008,24.478c0,1.21-0.007,1.281-1.197,1.201c-3.258-0.221-5.477,2.147-5.436,5.426
					c0.096,7.568,0.028,15.137,0.031,22.706c0.001,3.44,1.887,5.32,5.333,5.331c1.267,0.004,1.268,0.004,1.268,1.306
					c0.001,4.831-0.002,9.662,0.002,14.493c0.002,2.595,1.262,3.855,3.85,3.855c17.446,0.001,34.891,0.001,52.337,0
					c2.543,0,3.822-1.268,3.824-3.799c0.005-4.912,0.001-9.823,0.003-14.735c0-1.115,0.004-1.112,1.131-1.121
					c0.589-0.005,1.177,0.017,1.761-0.127c2.169-0.535,3.68-2.273,3.689-4.503C443.47,875.597,443.475,867.545,443.437,859.493z
					 M381.498,828.716c11.619-0.001,23.237-0.001,34.856,0c1.192,0,1.206,0.015,1.207,1.222c0.001,4.884-0.001,9.767,0.002,14.651
					c0.001,1.765,0.543,2.305,2.307,2.306c4.159,0.003,8.318,0,12.477,0.003c0.997,0.001,1.044,0.046,1.046,1.052
					c0.006,1.932,0.005,3.864,0,5.796c-0.003,1.038-0.051,1.085-1.098,1.085c-8.479,0.002-16.958,0.001-25.438,0.001
					c-8.452,0-16.905,0-25.357,0c-1.198,0-1.202-0.003-1.202-1.221c-0.001-7.889-0.001-15.778,0-23.667
					C380.299,828.724,380.308,828.716,381.498,828.716z M432.192,903.645c-8.454,0.001-16.908,0.001-25.362,0.001
					c-8.427,0-16.854,0.001-25.281,0c-1.245,0-1.249-0.003-1.249-1.262c-0.001-4.348-0.002-8.696,0.001-13.043
					c0.001-1.01,0.051-1.059,1.041-1.059c16.989-0.002,33.977-0.002,50.966,0c1.041,0,1.086,0.044,1.087,1.094
					c0.003,4.348,0.003,8.696,0.001,13.043C433.394,903.634,433.384,903.645,432.192,903.645z"/>
			</g>
			<g>
				<path style="fill:#FFFFFF;" d="M402.272,862.699h3.698l6.46,17.193h-3.578l-1.416-4.106h-6.628l-1.417,4.106h-3.578
					L402.272,862.699z M406.379,872.808l-1.537-4.298l-0.625-2.089h-0.192l-0.625,2.089l-1.537,4.298H406.379z"/>
				<path style="fill:#FFFFFF;" d="M415.815,866.541c-0.273,0-0.533-0.052-0.781-0.156c-0.248-0.104-0.465-0.248-0.648-0.432
					c-0.184-0.184-0.328-0.396-0.432-0.636c-0.105-0.241-0.156-0.504-0.156-0.793s0.052-0.552,0.156-0.793
					c0.104-0.24,0.248-0.452,0.432-0.636c0.184-0.184,0.4-0.328,0.648-0.432c0.248-0.104,0.508-0.156,0.781-0.156
					c0.56,0,1.041,0.196,1.441,0.588c0.4,0.393,0.601,0.869,0.601,1.429c0,0.56-0.201,1.037-0.601,1.428
					C416.856,866.345,416.375,866.541,415.815,866.541z M414.255,879.891v-11.766h3.145v11.766H414.255z"/>
			</g>
			<g>
				<path style="fill:#606060;" d="M524.043,859.493c-0.013-2.665-2.087-4.618-4.766-4.659c-2.011-0.031-1.81,0.261-1.815-1.887
					c-0.006-2.389-0.015-4.778,0.006-7.166c0.007-0.824-0.243-1.505-0.787-2.125c-5.098-5.81-10.184-11.63-15.281-17.441
					c-0.262-0.299-0.599-0.532-0.901-0.796c-13.528,0-27.055,0-40.583,0c-1.729,0.639-2.482,1.889-2.478,3.72
					c0.021,8.159,0.009,16.318,0.008,24.478c0,1.21-0.007,1.281-1.197,1.201c-3.258-0.221-5.477,2.147-5.436,5.426
					c0.096,7.568,0.028,15.137,0.031,22.706c0.001,3.44,1.887,5.32,5.333,5.331c1.267,0.004,1.268,0.004,1.268,1.306
					c0.001,4.831-0.002,9.662,0.002,14.493c0.002,2.595,1.262,3.855,3.85,3.855c17.446,0.001,34.891,0.001,52.337,0
					c2.543,0,3.822-1.268,3.824-3.799c0.005-4.912,0.001-9.823,0.003-14.735c0-1.115,0.004-1.112,1.131-1.121
					c0.589-0.005,1.177,0.017,1.761-0.127c2.169-0.535,3.68-2.273,3.689-4.503C524.076,875.597,524.081,867.545,524.043,859.493z
					 M462.104,828.716c11.619-0.001,23.237-0.001,34.856,0c1.192,0,1.206,0.015,1.207,1.222c0.001,4.884-0.001,9.767,0.002,14.651
					c0.001,1.765,0.543,2.305,2.307,2.306c4.159,0.003,8.318,0,12.477,0.003c0.997,0.001,1.044,0.046,1.046,1.052
					c0.006,1.932,0.005,3.864,0,5.796c-0.003,1.038-0.051,1.085-1.098,1.085c-8.479,0.002-16.958,0.001-25.438,0.001
					c-8.452,0-16.905,0-25.357,0c-1.198,0-1.202-0.003-1.202-1.221c-0.001-7.889-0.001-15.778,0-23.667
					C460.905,828.724,460.914,828.716,462.104,828.716z M512.798,903.645c-8.454,0.001-16.908,0.001-25.362,0.001
					c-8.427,0-16.854,0.001-25.281,0c-1.245,0-1.249-0.003-1.249-1.262c-0.001-4.348-0.002-8.696,0.001-13.043
					c0.001-1.01,0.051-1.059,1.041-1.059c16.989-0.002,33.977-0.002,50.966,0c1.041,0,1.086,0.044,1.087,1.094
					c0.003,4.348,0.003,8.696,0.001,13.043C514,903.634,513.989,903.645,512.798,903.645z"/>
			</g>
			<g>
				<path style="fill:#FFFFFF;" d="M470.308,880.275c-0.737,0-1.441-0.104-2.113-0.312c-0.672-0.208-1.289-0.52-1.849-0.936
					c-0.56-0.416-1.048-0.925-1.464-1.525c-0.417-0.601-0.745-1.301-0.985-2.101l3.049-1.2c0.224,0.864,0.616,1.581,1.177,2.149
					s1.297,0.852,2.209,0.852c0.336,0,0.66-0.044,0.973-0.132c0.312-0.087,0.592-0.216,0.84-0.384
					c0.248-0.168,0.444-0.38,0.589-0.636c0.144-0.256,0.216-0.552,0.216-0.888c0-0.32-0.056-0.608-0.168-0.865
					c-0.112-0.255-0.3-0.495-0.564-0.72c-0.264-0.224-0.609-0.44-1.033-0.648c-0.424-0.208-0.948-0.424-1.572-0.648l-1.056-0.384
					c-0.465-0.16-0.933-0.376-1.405-0.648c-0.472-0.272-0.9-0.6-1.284-0.985c-0.385-0.384-0.701-0.836-0.949-1.357
					c-0.249-0.52-0.372-1.108-0.372-1.765c0-0.672,0.132-1.301,0.396-1.885c0.264-0.584,0.64-1.096,1.129-1.537
					c0.488-0.44,1.072-0.784,1.753-1.032c0.681-0.248,1.437-0.372,2.269-0.372c0.864,0,1.612,0.116,2.245,0.348
					c0.633,0.232,1.168,0.528,1.609,0.888c0.44,0.36,0.796,0.757,1.068,1.188c0.272,0.433,0.472,0.84,0.601,1.225l-2.857,1.2
					c-0.161-0.48-0.453-0.913-0.876-1.297c-0.425-0.384-1.005-0.576-1.741-0.576c-0.704,0-1.289,0.164-1.753,0.492
					c-0.465,0.329-0.697,0.757-0.697,1.285c0,0.512,0.224,0.949,0.672,1.309c0.448,0.36,1.161,0.708,2.137,1.044l1.081,0.36
					c0.688,0.241,1.316,0.517,1.885,0.828c0.568,0.312,1.056,0.684,1.465,1.117c0.408,0.433,0.72,0.925,0.936,1.477
					c0.217,0.552,0.324,1.189,0.324,1.909c0,0.897-0.18,1.669-0.54,2.317c-0.36,0.648-0.82,1.181-1.38,1.597
					c-0.561,0.416-1.193,0.728-1.897,0.936C471.668,880.172,470.98,880.275,470.308,880.275z"/>
				<path style="fill:#FFFFFF;" d="M477.175,862.699h3.506l3.554,10.349l0.625,2.209h0.192l0.672-2.209l3.698-10.349h3.506
					l-6.268,17.193h-3.409L477.175,862.699z"/>
				<path style="fill:#FFFFFF;" d="M502.388,870.454h8.428c0.048,0.193,0.088,0.425,0.12,0.697c0.033,0.272,0.049,0.544,0.049,0.816
					c0,1.104-0.169,2.145-0.505,3.121c-0.336,0.977-0.864,1.849-1.585,2.618c-0.768,0.817-1.688,1.449-2.761,1.897
					c-1.073,0.448-2.298,0.672-3.674,0.672c-1.249,0-2.425-0.224-3.529-0.672c-1.105-0.447-2.066-1.072-2.882-1.873
					c-0.816-0.8-1.465-1.749-1.945-2.845c-0.48-1.097-0.72-2.293-0.72-3.59c0-1.296,0.241-2.493,0.72-3.589
					c0.48-1.097,1.129-2.045,1.945-2.845c0.816-0.8,1.777-1.425,2.882-1.873c1.104-0.448,2.28-0.672,3.529-0.672
					c1.392,0,2.637,0.24,3.734,0.72c1.097,0.48,2.038,1.144,2.822,1.993l-2.234,2.185c-0.56-0.592-1.185-1.044-1.874-1.357
					c-0.687-0.312-1.512-0.468-2.473-0.468c-0.784,0-1.528,0.14-2.234,0.421c-0.704,0.28-1.321,0.676-1.848,1.188
					c-0.528,0.512-0.949,1.133-1.261,1.861c-0.312,0.728-0.468,1.541-0.468,2.437c0,0.897,0.156,1.709,0.468,2.438
					c0.312,0.728,0.737,1.349,1.273,1.861c0.536,0.512,1.156,0.909,1.86,1.188c0.705,0.281,1.457,0.421,2.258,0.421
					c0.913,0,1.685-0.132,2.317-0.396c0.632-0.264,1.173-0.604,1.621-1.021c0.32-0.288,0.596-0.652,0.828-1.092
					c0.233-0.44,0.412-0.932,0.541-1.477h-5.402V870.454z"/>
			</g>
			<g>
				<path style="fill:#606060;" d="M602.976,859.493c-0.013-2.665-2.087-4.618-4.766-4.659c-2.011-0.031-1.81,0.261-1.815-1.887
					c-0.006-2.389-0.015-4.778,0.006-7.166c0.007-0.824-0.243-1.505-0.787-2.125c-5.098-5.81-10.184-11.63-15.281-17.441
					c-0.262-0.299-0.599-0.532-0.901-0.796c-13.528,0-27.055,0-40.583,0c-1.729,0.639-2.482,1.889-2.478,3.72
					c0.021,8.159,0.009,16.318,0.008,24.478c0,1.21-0.007,1.281-1.197,1.201c-3.258-0.221-5.477,2.147-5.436,5.426
					c0.096,7.568,0.028,15.137,0.031,22.706c0.001,3.44,1.887,5.32,5.333,5.331c1.267,0.004,1.268,0.004,1.268,1.306
					c0.001,4.831-0.002,9.662,0.002,14.493c0.002,2.595,1.262,3.855,3.85,3.855c17.446,0.001,34.891,0.001,52.337,0
					c2.543,0,3.822-1.268,3.824-3.799c0.005-4.912,0.001-9.823,0.003-14.735c0-1.115,0.005-1.112,1.131-1.121
					c0.589-0.005,1.178,0.017,1.761-0.127c2.169-0.535,3.68-2.273,3.689-4.503C603.01,875.597,603.015,867.545,602.976,859.493z
					 M541.037,828.716c11.619-0.001,23.237-0.001,34.856,0c1.193,0,1.206,0.015,1.207,1.222c0.001,4.884-0.002,9.767,0.002,14.651
					c0.001,1.765,0.543,2.305,2.307,2.306c4.159,0.003,8.318,0,12.477,0.003c0.997,0.001,1.044,0.046,1.046,1.052
					c0.006,1.932,0.005,3.864,0,5.796c-0.003,1.038-0.051,1.085-1.098,1.085c-8.479,0.002-16.958,0.001-25.438,0.001
					c-8.452,0-16.905,0-25.357,0c-1.198,0-1.202-0.003-1.202-1.221c-0.001-7.889-0.001-15.778,0-23.667
					C539.838,828.724,539.847,828.716,541.037,828.716z M591.731,903.645c-8.454,0.001-16.908,0.001-25.362,0.001
					c-8.427,0-16.854,0.001-25.281,0c-1.245,0-1.249-0.003-1.249-1.262c-0.001-4.348-0.003-8.696,0.001-13.043
					c0.001-1.01,0.051-1.059,1.041-1.059c16.989-0.002,33.977-0.002,50.966,0c1.041,0,1.086,0.044,1.087,1.094
					c0.003,4.348,0.003,8.696,0.001,13.043C592.934,903.634,592.923,903.645,591.731,903.645z"/>
			</g>
			<g>
				<path style="fill:#FFFFFF;" d="M549.998,865.772v3.986h6.891v3.074h-6.891v3.986h7.659v3.073h-10.901v-17.193h10.901v3.073
					H549.998z"/>
				<path style="fill:#FFFFFF;" d="M560.635,879.891v-17.193h6.051c0.816,0,1.581,0.132,2.293,0.396
					c0.712,0.264,1.333,0.636,1.861,1.117c0.528,0.48,0.944,1.053,1.249,1.717c0.304,0.665,0.456,1.397,0.456,2.198
					c0,0.816-0.152,1.557-0.456,2.221c-0.305,0.664-0.721,1.236-1.249,1.717c-0.528,0.48-1.149,0.852-1.861,1.117
					c-0.713,0.264-1.477,0.396-2.293,0.396h-2.809v6.315H560.635z M566.735,870.503c0.848,0,1.489-0.241,1.921-0.721
					c0.432-0.48,0.648-1.032,0.648-1.656c0-0.304-0.052-0.601-0.156-0.889c-0.105-0.288-0.264-0.54-0.48-0.756
					c-0.216-0.217-0.484-0.388-0.805-0.516c-0.32-0.129-0.696-0.193-1.128-0.193h-2.857v4.731H566.735z"/>
				<path style="fill:#FFFFFF;" d="M580.109,880.275c-0.737,0-1.441-0.104-2.113-0.312c-0.672-0.208-1.289-0.52-1.849-0.936
					c-0.56-0.416-1.049-0.925-1.465-1.525c-0.416-0.601-0.744-1.301-0.985-2.101l3.049-1.2c0.224,0.864,0.616,1.581,1.177,2.149
					c0.56,0.568,1.296,0.852,2.209,0.852c0.336,0,0.66-0.044,0.973-0.132c0.312-0.087,0.592-0.216,0.84-0.384
					c0.248-0.168,0.444-0.38,0.588-0.636c0.144-0.256,0.217-0.552,0.217-0.888c0-0.32-0.057-0.608-0.168-0.865
					c-0.112-0.255-0.3-0.495-0.565-0.72c-0.264-0.224-0.608-0.44-1.032-0.648c-0.424-0.208-0.949-0.424-1.573-0.648l-1.056-0.384
					c-0.465-0.16-0.932-0.376-1.404-0.648c-0.473-0.272-0.901-0.6-1.285-0.985c-0.384-0.384-0.701-0.836-0.949-1.357
					c-0.248-0.52-0.372-1.108-0.372-1.765c0-0.672,0.132-1.301,0.396-1.885c0.264-0.584,0.64-1.096,1.129-1.537
					c0.489-0.44,1.073-0.784,1.753-1.032c0.68-0.248,1.437-0.372,2.269-0.372c0.865,0,1.613,0.116,2.246,0.348
					c0.632,0.232,1.168,0.528,1.609,0.888c0.44,0.36,0.796,0.757,1.068,1.188c0.272,0.433,0.472,0.84,0.601,1.225l-2.857,1.2
					c-0.161-0.48-0.453-0.913-0.877-1.297s-1.005-0.576-1.741-0.576c-0.705,0-1.289,0.164-1.753,0.492
					c-0.465,0.329-0.696,0.757-0.696,1.285c0,0.512,0.224,0.949,0.672,1.309c0.448,0.36,1.16,0.708,2.137,1.044l1.08,0.36
					c0.689,0.241,1.317,0.517,1.885,0.828c0.568,0.312,1.056,0.684,1.465,1.117c0.408,0.433,0.72,0.925,0.936,1.477
					c0.216,0.552,0.324,1.189,0.324,1.909c0,0.897-0.18,1.669-0.54,2.317c-0.36,0.648-0.821,1.181-1.38,1.597
					c-0.561,0.416-1.193,0.728-1.897,0.936C581.47,880.172,580.782,880.275,580.109,880.275z"/>
			</g>
			<g>
				<path style="fill:#FFFFFF;" d="M655.431,876.625l8.716-10.854h-8.332v-3.073h12.103v3.266l-8.621,10.854h8.716v3.073h-12.582
					V876.625z"/>
				<path style="fill:#FFFFFF;" d="M670.702,862.699h3.242v17.193h-3.242V862.699z"/>
				<path style="fill:#FFFFFF;" d="M677.402,879.891v-17.193h6.051c0.817,0,1.581,0.132,2.293,0.396
					c0.712,0.264,1.333,0.636,1.861,1.117s0.944,1.053,1.249,1.717c0.304,0.665,0.456,1.397,0.456,2.198
					c0,0.816-0.152,1.557-0.456,2.221c-0.305,0.664-0.721,1.236-1.249,1.717s-1.149,0.852-1.861,1.117
					c-0.713,0.264-1.477,0.396-2.293,0.396h-2.809v6.315H677.402z M683.501,870.503c0.848,0,1.489-0.241,1.921-0.721
					c0.433-0.48,0.648-1.032,0.648-1.656c0-0.304-0.052-0.601-0.156-0.889c-0.105-0.288-0.264-0.54-0.48-0.756
					c-0.216-0.217-0.484-0.388-0.805-0.516c-0.32-0.129-0.696-0.193-1.128-0.193h-2.857v4.731H683.501z"/>
			</g>
		</g>
		<g style="opacity:0.61;">
			<path style="fill:#606060;" d="M609.144,863.785h19.739v4.881h-19.739V863.785z M609.144,872.201h19.739v4.884h-19.739V872.201z"
				/>
		</g>
	</g>
	<g style="opacity:0.61;">
		<path style="fill:#606060;" d="M297,963.076h3.498c2.75,0,4.603,1.768,4.603,4.297s-1.854,4.296-4.603,4.296H297V963.076z
			 M300.449,970.883c2.283,0,3.756-1.448,3.756-3.51s-1.473-3.511-3.756-3.511h-2.541v7.021H300.449z"/>
		<path style="fill:#606060;" d="M315.251,967.373c0-2.504,1.915-4.37,4.517-4.37c2.577,0,4.505,1.853,4.505,4.37
			c0,2.516-1.927,4.369-4.505,4.369C317.166,971.742,315.251,969.877,315.251,967.373z M323.365,967.373
			c0-2.05-1.534-3.56-3.596-3.56c-2.075,0-3.621,1.51-3.621,3.56c0,2.049,1.546,3.559,3.621,3.559
			C321.831,970.932,323.365,969.422,323.365,967.373z"/>
		<path style="fill:#606060;" d="M346.724,963.076l-2.897,8.593h-0.957l-2.516-7.328l-2.529,7.328h-0.945l-2.897-8.593h0.933
			l2.479,7.389l2.566-7.389h0.847l2.529,7.426l2.516-7.426H346.724z"/>
		<path style="fill:#606060;" d="M364.435,963.076v8.593h-0.749l-5.524-6.972v6.972h-0.908v-8.593h0.749l5.536,6.973v-6.973H364.435
			z"/>
		<path style="fill:#606060;" d="M376.108,963.076h0.908v7.807h4.812v0.786h-5.72V963.076z"/>
		<path style="fill:#606060;" d="M391.279,967.373c0-2.504,1.915-4.37,4.517-4.37c2.577,0,4.505,1.853,4.505,4.37
			c0,2.516-1.927,4.369-4.505,4.369C393.194,971.742,391.279,969.877,391.279,967.373z M399.392,967.373
			c0-2.05-1.534-3.56-3.596-3.56c-2.075,0-3.621,1.51-3.621,3.56c0,2.049,1.546,3.559,3.621,3.559
			C397.858,970.932,399.392,969.422,399.392,967.373z"/>
		<path style="fill:#606060;" d="M416.478,969.374h-4.787l-1.031,2.295h-0.945l3.928-8.593h0.896l3.928,8.593h-0.957
			L416.478,969.374z M416.147,968.637l-2.062-4.615l-2.062,4.615H416.147z"/>
		<path style="fill:#606060;" d="M428.765,963.076h3.498c2.75,0,4.603,1.768,4.603,4.297s-1.854,4.296-4.603,4.296h-3.498V963.076z
			 M432.214,970.883c2.283,0,3.756-1.448,3.756-3.51s-1.473-3.511-3.756-3.511h-2.541v7.021H432.214z"/>
		<path style="fill:#606060;" d="M465.256,969.374h-4.787l-1.031,2.295h-0.945l3.928-8.593h0.896l3.928,8.593h-0.957
			L465.256,969.374z M464.925,968.637l-2.062-4.615l-2.062,4.615H464.925z"/>
		<path style="fill:#606060;" d="M477.543,963.076h0.908v7.807h4.812v0.786h-5.72V963.076z"/>
		<path style="fill:#606060;" d="M493.647,963.076h0.908v7.807h4.812v0.786h-5.72V963.076z"/>
		<path style="fill:#606060;" d="M522.749,963.862v3.376h4.443v0.786h-4.443v3.646h-0.909v-8.593h5.891v0.786H522.749z"/>
		<path style="fill:#606060;" d="M538.485,963.076h0.909v8.593h-0.909V963.076z"/>
		<path style="fill:#606060;" d="M551.067,963.076h0.909v7.807h4.811v0.786h-5.72V963.076z"/>
		<path style="fill:#606060;" d="M573.246,970.883v0.786h-6.076v-8.593h5.891v0.786h-4.983v3.056h4.443v0.774h-4.443v3.191H573.246z
			"/>
		<path style="fill:#606060;" d="M597.255,963.862v3.376h4.443v0.786h-4.443v3.646h-0.909v-8.593h5.891v0.786H597.255z"/>
		<path style="fill:#606060;" d="M612.119,967.373c0-2.504,1.915-4.37,4.517-4.37c2.577,0,4.505,1.853,4.505,4.37
			c0,2.516-1.927,4.369-4.505,4.369C614.034,971.742,612.119,969.877,612.119,967.373z M620.232,967.373
			c0-2.05-1.534-3.56-3.596-3.56c-2.075,0-3.622,1.51-3.622,3.56c0,2.049,1.547,3.559,3.622,3.559
			C618.698,970.932,620.232,969.422,620.232,967.373z"/>
		<path style="fill:#606060;" d="M637.919,971.669l-1.963-2.762c-0.222,0.024-0.442,0.037-0.688,0.037h-2.307v2.725h-0.909v-8.593
			h3.216c2.185,0,3.511,1.105,3.511,2.946c0,1.351-0.712,2.295-1.964,2.7l2.099,2.946H637.919z M637.871,966.022
			c0-1.375-0.909-2.161-2.627-2.161h-2.283v4.309h2.283C636.962,968.17,637.871,967.373,637.871,966.022z"/>
		<path style="fill:#606060;" d="M658.724,963.076v8.593h-0.871v-6.874l-3.376,5.782h-0.429l-3.376-5.745v6.837h-0.872v-8.593h0.749
			l3.732,6.371l3.695-6.371H658.724z"/>
		<path style="fill:#606060;" d="M675.787,969.374h-4.788l-1.031,2.295h-0.946l3.928-8.593h0.896l3.928,8.593h-0.957
			L675.787,969.374z M675.455,968.637l-2.062-4.615l-2.062,4.615H675.455z"/>
		<path style="fill:#606060;" d="M689.312,963.862h-3.02v-0.786h6.948v0.786h-3.02v7.807h-0.908V963.862z"/>
		<path style="fill:#606060;" d="M702.605,970.626l0.356-0.7c0.614,0.601,1.706,1.043,2.835,1.043c1.608,0,2.308-0.675,2.308-1.522
			c0-2.357-5.29-0.908-5.29-4.087c0-1.265,0.982-2.357,3.167-2.357c0.97,0,1.976,0.282,2.664,0.761l-0.307,0.724
			c-0.737-0.479-1.596-0.712-2.357-0.712c-1.571,0-2.271,0.7-2.271,1.559c0,2.357,5.29,0.933,5.29,4.063
			c0,1.265-1.006,2.344-3.204,2.344C704.508,971.742,703.243,971.288,702.605,970.626z"/>
	</g>
</g>
<g>
</g>
<g>
	<path d="M635.341,522.631l-32.967-45.84l-58.305-10.081L531.4,479.311c-10.013,10.081-16.756,17.641-20.162,22.818
		c-4.496,6.675-6.743,13.554-6.743,20.502c3.201-8.991,9.944-14.236,20.298-15.802c7.561-1.09,19.072-0.204,34.465,2.793
		L635.341,522.631z"/>
	<path d="M520.502,301.603c0-0.136-0.136-0.136-0.409,0c-0.341,3.201-0.954,5.79-1.635,7.833c-0.954,2.588-2.384,5.313-4.427,8.174
		c-3.814,5.381-12.533,14.849-26.156,28.471l-27.654,27.722c-8.446,8.378-14.576,16.007-18.595,22.75
		c-4.904,8.582-7.016,16.892-6.334,24.861c0.409,4.427,1.226,8.174,2.656,11.375c1.158,2.52,2.316,4.291,3.678,5.245
		c1.022,0.749,1.09,0.613,0.341-0.409c-3.542-8.31-2.179-17.573,4.019-27.926c3.474-5.653,9.4-12.669,17.778-21.115l29.084-29.016
		c8.242-8.105,13.827-13.895,16.824-17.573c7.22-8.923,10.83-16.756,10.83-23.363V301.603z"/>
	<path d="M520.093,330.688c-0.341,3.133-0.954,5.79-1.635,7.833c-0.954,2.52-2.384,5.245-4.427,8.174
		c-3.814,5.313-12.533,14.849-26.156,28.471l-25.678,25.678c-5.858,5.994-10.013,11.034-12.329,15.121
		c-3.542,6.13-5.245,12.737-5.04,19.889c0.068,4.836,1.226,9.127,3.542,12.737c2.316,3.678,5.245,5.926,8.855,6.811
		c2.793,0.749,3.474,0.749,1.976,0c-2.589-1.226-4.359-3.201-5.517-5.994c-1.158-2.793-1.499-5.994-0.954-9.672
		c1.09-8.378,5.585-16.551,13.623-24.657l26.496-26.291c8.582-8.582,14.167-14.508,16.824-17.709
		c7.22-9.059,10.83-16.824,10.83-23.363v-17.028C520.502,330.552,520.366,330.552,520.093,330.688z"/>
	<path d="M486.718,466.778c-6.13-2.861-17.165-2.929-33.239-0.068l-57.487,10.081l-33.035,46.113l79.488-14.304
		c14.099-2.384,24.793-2.929,32.013-1.567c9.808,1.771,16.211,6.948,19.14,15.598v-31.06h-15.598v-10.83h15.598v-1.022
		C493.597,473.249,491.281,468.889,486.718,466.778z"/>
	<path d="M556.67,369.853c-1.022-0.885-1.158-0.681-0.341,0.341c3.542,8.242,2.316,17.437-3.61,27.518
		c-3.133,5.381-8.105,11.443-14.781,18.186l-8.105,8.105c-7.833,7.697-13.623,14.168-17.437,19.549
		c-5.244,7.424-7.901,14.099-7.901,19.957v17.233h0.408c0.681-6.13,2.861-11.92,6.539-17.369c3.337-4.972,9.74-12.124,19.14-21.592
		l7.561-7.492c8.378-8.446,14.576-16.075,18.527-22.818c4.972-8.514,7.084-16.824,6.335-24.861
		c-0.341-4.427-1.226-8.242-2.656-11.511C559.258,372.577,558.032,370.806,556.67,369.853z"/>
	<path d="M544.682,358.138c1.09,2.792,1.43,5.994,0.953,9.74c-1.158,8.446-5.654,16.62-13.623,24.657l-9.332,9.127
		c-12.124,12.124-18.186,22.682-18.186,31.604v17.641h0.408c0.681-5.858,2.861-11.511,6.607-17.096
		c3.337-4.904,9.127-11.511,17.301-19.685l7.492-7.561c5.721-5.721,9.808-10.694,12.26-14.917c3.474-6.13,5.109-12.737,4.972-19.821
		c-0.136-4.904-1.294-9.127-3.542-12.805c-2.316-3.678-5.245-5.994-8.923-7.016c-2.588-0.477-3.269-0.409-1.975,0.204
		C541.685,353.437,543.524,355.413,544.682,358.138z"/>
	<path d="M565.184,401.525c-0.408-1.498-0.613-1.975-0.613-1.43c-0.681,7.697-2.656,14.304-5.79,19.889
		c-3.678,6.403-10.626,14.713-20.843,24.929l-5.176,5.177c-7.288,7.288-11.647,11.715-13.078,13.282
		c-5.517,6.266-9.536,11.988-11.988,17.369h12.805l14.644-14.849c8.582-8.446,14.508-14.644,17.709-18.527
		c5.245-6.267,8.787-12.397,10.762-18.255c1.43-4.291,2.384-8.242,2.725-11.783c0.341-3.542,0.204-7.492-0.341-11.716
		C565.865,404.318,565.661,402.956,565.184,401.525z"/>
	<path d="M504.496,508.599c0.272,0.136,0.408,0.136,0.408,0c0.613-5.721,2.861-11.375,6.743-17.028h-7.152V508.599z"/>
	<path d="M520.093,272.587c-0.068,0.885-0.205,1.771-0.341,2.588c-0.341,2.043-0.818,3.746-1.294,5.245
		c-0.954,2.52-2.384,5.245-4.427,8.174c-3.814,5.313-12.533,14.78-26.156,28.471l-24.657,24.861
		c-8.514,8.378-14.44,14.576-17.778,18.595c-5.177,6.334-8.787,12.396-10.694,18.186c-1.498,4.359-2.384,8.31-2.792,11.852
		c-0.341,3.542-0.205,7.492,0.408,11.852c0.068,1.771,0.613,3.61,1.362,5.585c0.749-7.833,2.657-14.508,5.858-20.093
		c3.61-6.403,10.558-14.78,20.775-24.997l32.49-32.218c8.65-8.65,14.236-14.576,16.824-17.709c7.22-9.059,10.83-16.824,10.83-23.431
		v-16.96C520.502,272.451,520.366,272.451,520.093,272.587z"/>
	<g>
		<path d="M721.64,610.088h-1.294L702.5,652.999c-1.498,3.814-2.929,6.266-4.223,7.492c-0.613,0.681-1.976,1.158-4.087,1.498v1.43
			h15.938v-1.43c-2.384-0.136-3.951-0.545-4.768-1.158c-0.681-0.613-1.09-1.294-1.09-2.112c0-1.022,0.409-2.52,1.294-4.496
			l3.406-8.242h19.617l3.065,7.492c0.954,2.452,1.498,4.223,1.498,5.313c0,0.885-0.341,1.635-1.09,2.179
			c-0.681,0.545-2.043,0.954-4.087,1.022v1.43H748v-1.43c-2.043-0.136-3.678-0.681-4.904-1.703c-1.09-1.09-2.384-3.337-3.814-6.811
			L721.64,610.088z M727.566,643.123h-17.437l8.855-21.047L727.566,643.123z"/>
		<path d="M606.801,612.744h1.839v-1.43h-21.728v1.43h1.839c1.158,0,2.316,0.272,3.406,0.885c0.749,0.477,1.226,1.022,1.567,1.635
			c0.272,0.885,0.477,2.656,0.477,5.245v33.716c0,3.133-0.341,5.109-0.953,5.926c-0.885,1.226-2.384,1.839-4.496,1.839h-1.839v1.43
			h21.728v-1.43h-1.839c-1.226,0-2.316-0.272-3.406-0.885c-0.817-0.477-1.294-1.022-1.566-1.703
			c-0.341-0.818-0.477-2.588-0.477-5.177v-33.716c0-3.133,0.272-5.108,0.953-5.926C603.26,613.357,604.758,612.744,606.801,612.744z
			"/>
		<path d="M630.164,613.153c2.316,0,4.495,0.613,6.607,1.839c2.18,1.226,3.883,2.861,4.972,4.904
			c1.158,1.975,1.975,4.768,2.452,8.31h1.362v-18.118h-1.362c-0.272,1.226-0.613,2.043-1.022,2.452
			c-0.477,0.341-0.953,0.545-1.566,0.545c-0.613,0-1.635-0.272-2.997-0.953c-2.997-1.362-5.858-2.043-8.514-2.043
			c-4.291,0-7.833,1.362-10.626,4.087c-2.793,2.724-4.223,5.926-4.223,9.672c0,2.112,0.477,4.087,1.43,5.926
			s2.384,3.474,4.155,4.904c1.975,1.566,5.04,3.542,9.263,5.994c4.359,2.52,7.016,4.155,7.969,4.904
			c1.43,1.158,2.52,2.384,3.201,3.61c0.681,1.362,1.022,2.656,1.022,3.883c0,2.316-0.953,4.359-2.724,5.994
			c-1.839,1.703-4.291,2.588-7.424,2.588c-2.656,0-5.108-0.613-7.356-1.839c-2.248-1.226-3.882-2.793-5.04-4.632
			c-1.09-1.907-1.975-4.7-2.588-8.446h-1.43v17.914h1.43c0.136-1.226,0.409-2.043,0.749-2.384c0.408-0.409,0.885-0.613,1.498-0.613
			c0.681,0,2.18,0.409,4.564,1.226c2.52,0.817,4.087,1.294,4.836,1.43c1.43,0.204,2.861,0.341,4.155,0.341
			c4.632,0,8.514-1.43,11.443-4.291c2.997-2.861,4.496-6.266,4.496-10.217c0-2.043-0.477-4.019-1.43-5.994
			c-0.886-1.839-2.248-3.542-3.951-4.904c-1.703-1.43-4.904-3.406-9.672-6.062c-5.858-3.201-9.536-5.721-11.034-7.629
			c-1.09-1.294-1.635-2.792-1.635-4.359c0-2.112,0.885-3.95,2.588-5.585C625.464,613.97,627.576,613.153,630.164,613.153z"/>
		<path d="M666.741,614.583h6.13v39.846c0,2.929-0.272,4.768-0.885,5.585c-0.818,1.294-2.384,1.975-4.495,1.975h-1.839v1.43h21.524
			v-1.43h-1.771c-1.975,0-3.474-0.545-4.359-1.566c-0.681-0.818-1.022-2.861-1.022-5.994v-39.846h7.152
			c2.043,0,3.746,0.341,5.04,1.022c1.294,0.749,2.316,1.839,3.065,3.269c0.477,0.885,0.818,2.452,1.09,4.632h1.43l-0.545-12.192
			h-41.345l-0.613,12.192h1.43c0.204-2.316,0.749-4.223,1.635-5.585c0.954-1.43,2.043-2.316,3.337-2.793
			C662.654,614.719,664.357,614.583,666.741,614.583z"/>
		<path d="M692.662,686.988v-1.09h-17.164v1.09h1.43c0.954,0,1.839,0.272,2.724,0.749c0.545,0.341,0.954,0.749,1.226,1.226
			c0.204,0.681,0.341,2.043,0.341,4.087v26.088c0,2.384-0.205,3.95-0.681,4.563c-0.749,0.954-1.975,1.43-3.61,1.43h-1.43v1.09
			h17.164v-1.09h-1.498c-0.886,0-1.839-0.204-2.657-0.681c-0.613-0.409-1.022-0.818-1.226-1.294
			c-0.272-0.681-0.409-1.975-0.409-4.019V693.05c0-2.452,0.272-4.019,0.749-4.563c0.749-1.022,1.975-1.499,3.542-1.499H692.662z"/>
		<path d="M716.229,685.012h-1.022l-14.031,33.171c-1.294,2.997-2.384,4.904-3.337,5.79c-0.477,0.477-1.567,0.886-3.269,1.158v1.09
			h12.601v-1.09c-1.907-0.136-3.201-0.409-3.746-0.885c-0.613-0.477-0.886-1.022-0.886-1.635c0-0.817,0.341-2.043,1.022-3.474
			l2.725-6.403h15.462l2.384,5.79c0.817,1.907,1.226,3.338,1.226,4.155c0,0.613-0.272,1.226-0.885,1.635
			c-0.545,0.477-1.635,0.749-3.201,0.818v1.09h15.734v-1.09c-1.635-0.068-2.861-0.545-3.814-1.362
			c-0.885-0.749-1.907-2.52-2.997-5.245L716.229,685.012z M714.118,694.208l6.811,16.347H707.17L714.118,694.208z"/>
		<path d="M667.597,683.786c-2.452-4.291-5.585-7.356-9.4-9.195c-3.95-1.839-9.672-2.792-17.096-2.792h-20.298v1.498h1.839
			c1.907,0,3.338,0.545,4.291,1.771c0.681,0.818,1.022,2.997,1.022,6.334v35.215c0,3.065-0.272,5.04-0.817,5.926
			c-0.886,1.498-2.384,2.248-4.495,2.248h-1.839v1.43h22.273c9.74,0,16.96-2.793,21.728-8.514c4.223-5.04,6.334-11.375,6.334-18.936
			C671.138,693.118,669.981,688.146,667.597,683.786z M635.038,676.089c2.861-0.817,5.381-1.226,7.561-1.226
			c5.858,0,10.694,2.179,14.44,6.471c3.814,4.427,5.721,10.353,5.721,17.777c0,7.492-1.907,13.35-5.721,17.778
			c-3.746,4.359-8.514,6.539-14.168,6.539c-2.111,0-4.7-0.341-7.833-1.09V676.089z"/>
		<path d="M289.19,591.289h-1.771l-24.112,58.033c-2.112,5.109-4.019,8.514-5.722,10.149c-0.885,0.817-2.725,1.498-5.585,2.043
			v1.907h21.592v-1.907c-3.27-0.272-5.449-0.818-6.471-1.567c-0.954-0.817-1.43-1.771-1.43-2.861c0-1.294,0.545-3.337,1.703-6.13
			l4.632-11.17h26.564l4.087,10.149c1.362,3.337,2.043,5.721,2.043,7.22c0,1.226-0.477,2.179-1.43,2.929
			c-0.954,0.818-2.793,1.294-5.517,1.43v1.907h27.041v-1.907c-2.861-0.205-5.04-0.954-6.539-2.384
			c-1.635-1.43-3.406-4.496-5.245-9.195L289.19,591.289z M297.159,635.971h-23.567l11.92-28.539L297.159,635.971z"/>
		<path d="M329.172,612.744c1.907,0,3.338,0.545,4.359,1.703c0.681,0.818,1.022,2.861,1.022,6.062v33.716
			c0,2.929-0.273,4.836-0.817,5.654c-0.885,1.43-2.452,2.111-4.564,2.111h-1.907v1.43h22.614c9.876,0,17.164-2.725,22-8.105
			c4.223-4.904,6.403-10.966,6.403-18.186c0-5.449-1.226-10.217-3.61-14.304c-2.384-4.155-5.585-7.084-9.536-8.855
			c-3.951-1.771-9.74-2.656-17.233-2.656h-20.638v1.43H329.172z M341.705,615.332c2.861-0.749,5.449-1.09,7.628-1.09
			c5.994,0,10.898,2.043,14.712,6.198c3.814,4.155,5.721,9.876,5.721,17.028c0,7.152-1.907,12.805-5.721,17.028
			c-3.814,4.155-8.651,6.267-14.44,6.267c-2.179,0-4.836-0.409-7.901-1.09V615.332z"/>
		<path d="M344.043,675c-2.929,2.793-4.427,6.198-4.427,10.081c0,2.179,0.545,4.291,1.499,6.13c1.022,1.907,2.52,3.61,4.427,5.108
			c2.043,1.566,5.245,3.678,9.808,6.266c4.496,2.52,7.356,4.223,8.446,5.04c1.567,1.294,2.725,2.52,3.406,3.814
			c0.681,1.43,1.09,2.725,1.09,4.019c0,2.452-0.954,4.496-2.861,6.267c-1.975,1.771-4.563,2.656-7.833,2.656
			c-2.861,0-5.449-0.681-7.901-1.907c-2.384-1.294-4.155-2.929-5.313-4.836c-1.158-1.975-2.112-4.904-2.793-8.718h-1.43v18.595h1.43
			c0.205-1.294,0.477-2.112,0.886-2.52c0.409-0.408,0.885-0.545,1.498-0.545c0.681,0,2.316,0.341,4.972,1.226
			c2.452,0.818,4.155,1.294,5.04,1.43c1.499,0.272,2.929,0.409,4.427,0.409c4.904,0,8.991-1.499,12.192-4.495
			c3.133-2.997,4.7-6.539,4.7-10.626c0-2.111-0.477-4.155-1.43-6.198c-1.022-1.907-2.384-3.61-4.291-5.108
			c-1.771-1.43-5.177-3.542-10.285-6.267c-6.13-3.337-10.012-5.994-11.647-8.037c-1.158-1.294-1.703-2.793-1.703-4.496
			c0-2.112,0.885-4.087,2.656-5.79c1.839-1.703,4.087-2.52,6.811-2.52c2.452,0,4.768,0.613,7.084,1.907
			c2.248,1.226,3.95,2.929,5.245,5.04c1.226,2.112,2.043,4.972,2.52,8.582h1.499v-18.731h-1.499
			c-0.204,1.226-0.545,2.043-1.022,2.52c-0.409,0.409-0.954,0.613-1.703,0.613c-0.545,0-1.635-0.341-3.133-1.022
			c-3.133-1.362-6.13-2.111-9.059-2.111C350.786,670.777,347.04,672.207,344.043,675z"/>
		<path d="M298.816,682.288c0.272,0.341,0.409,1.158,0.409,2.52v13.963c0,1.022-0.068,1.703-0.136,2.043
			c-0.204,0.341-0.409,0.613-0.749,0.749c-0.477,0.272-0.954,0.409-1.499,0.409h-0.749v0.613h17.028l1.907-5.381h-0.681
			c-0.613,1.226-1.294,2.248-2.043,2.929c-0.477,0.477-1.022,0.818-1.635,1.022c-0.545,0.136-1.498,0.205-2.725,0.205h-3.746
			c-0.613,0-1.022-0.068-1.226-0.136c-0.204-0.136-0.409-0.272-0.477-0.477c-0.068-0.273-0.136-0.818-0.136-1.771v-7.084h4.904
			c0.954,0,1.635,0.136,2.043,0.341c0.409,0.204,0.749,0.477,0.954,0.885c0.136,0.272,0.273,0.953,0.477,1.975h0.545v-7.492h-0.545
			c-0.068,1.226-0.409,2.112-0.954,2.589c-0.477,0.341-1.294,0.545-2.52,0.545h-4.904v-8.446h6.062c1.158,0,1.907,0.068,2.316,0.272
			c0.545,0.136,0.954,0.477,1.226,0.885c0.273,0.477,0.545,1.226,0.818,2.316h0.613l-0.272-4.632h-17.028v0.545h0.749
			C297.794,681.675,298.407,681.879,298.816,682.288z"/>
		<path d="M538.824,559.616h1.09c0.749-0.068,1.498,0.136,2.179,0.545c0.477,0.273,0.817,0.613,0.953,1.022
			c0.205,0.545,0.341,1.635,0.341,3.338v21.319c0,1.975-0.204,3.201-0.613,3.746c-0.545,0.749-1.498,1.158-2.861,1.158h-1.09v0.885
			h13.691v-0.885h-1.158c-0.749,0-1.499-0.205-2.18-0.545c-0.477-0.341-0.817-0.681-0.954-1.09
			c-0.204-0.545-0.341-1.635-0.341-3.269V564.52c0-2.043,0.205-3.27,0.613-3.746c0.613-0.818,1.567-1.226,2.861-1.158h1.158v-0.953
			h-13.691V559.616z"/>
		<path d="M532.967,560.774c-0.409,0-0.953-0.136-1.771-0.477c-1.771-0.818-3.406-1.158-4.972-1.09
			c-2.52,0.068-4.632,0.886-6.267,2.52s-2.452,3.542-2.452,5.79c0,1.226,0.273,2.384,0.818,3.406c0.613,1.09,1.43,2.043,2.452,2.861
			c1.158,0.886,2.997,2.043,5.449,3.338c2.52,1.43,4.087,2.384,4.632,2.792c0.886,0.613,1.499,1.362,1.907,2.043
			c0.408,0.817,0.613,1.567,0.613,2.316c-0.068,1.294-0.545,2.52-1.635,3.542c-1.022,1.022-2.52,1.567-4.291,1.635
			c-1.635,0-3.065-0.341-4.359-1.022c-1.362-0.681-2.316-1.566-2.929-2.588c-0.681-1.158-1.158-2.793-1.567-4.904h-0.817v10.49
			h0.817c0.136-0.749,0.272-1.158,0.477-1.43c0.204-0.205,0.477-0.341,0.885-0.341c0.341,0,1.294,0.204,2.656,0.613
			c1.499,0.477,2.452,0.681,2.861,0.749c0.818,0.136,1.635,0.204,2.452,0.136c2.725-0.068,4.972-0.953,6.675-2.656
			c1.771-1.771,2.656-3.814,2.656-6.13c0-1.158-0.272-2.316-0.817-3.474c-0.545-1.09-1.362-2.043-2.384-2.792
			c-0.954-0.818-2.861-1.907-5.654-3.406c-3.406-1.771-5.585-3.201-6.471-4.291c-0.613-0.749-0.954-1.635-0.954-2.588
			c0-1.158,0.477-2.248,1.499-3.27c1.022-0.953,2.248-1.498,3.746-1.566c1.362,0,2.656,0.272,3.882,1.022
			c1.294,0.613,2.316,1.566,2.929,2.725c0.681,1.158,1.158,2.793,1.43,4.836h0.817v-10.626l-0.817,0.068
			c-0.136,0.681-0.341,1.158-0.545,1.43C533.648,560.638,533.307,560.774,532.967,560.774z"/>
		<path d="M515.938,583.319h-0.954c-1.022,1.907-2.043,3.406-3.065,4.427c-0.749,0.681-1.567,1.226-2.452,1.499
			c-0.885,0.204-2.248,0.341-4.019,0.341h-5.585c-0.885,0-1.498-0.068-1.907-0.272c-0.272-0.136-0.477-0.409-0.681-0.681
			c-0.068-0.341-0.136-1.226-0.136-2.589v-10.558h7.22c1.43,0,2.452,0.205,3.065,0.477c0.681,0.341,1.158,0.749,1.43,1.294
			c0.204,0.477,0.477,1.499,0.681,2.997h0.885v-11.102h-0.885c-0.136,1.839-0.545,3.065-1.43,3.814
			c-0.613,0.545-1.907,0.817-3.746,0.817h-7.22v-12.601h8.991c1.703,0,2.861,0.068,3.474,0.341c0.749,0.341,1.362,0.818,1.771,1.43
			c0.477,0.613,0.818,1.771,1.158,3.474h0.953l-0.341-7.016H487.74v0.885h1.158c1.362,0,2.316,0.272,2.929,0.953
			c0.409,0.409,0.613,1.703,0.613,3.746v20.706c0,1.567-0.068,2.589-0.272,3.065c-0.205,0.545-0.545,0.886-1.022,1.158
			c-0.749,0.341-1.43,0.545-2.248,0.545h-1.158v0.886h25.406L515.938,583.319z"/>
		<path d="M488.693,614.651c0.818,0.613,1.975,1.771,3.337,3.474v36.305c0,2.861-0.272,4.768-0.817,5.585
			c-0.817,1.294-2.384,1.975-4.564,1.975h-1.771v1.43h17.641v-1.43h-1.771c-1.976,0-3.474-0.545-4.359-1.566
			c-0.681-0.818-1.022-2.861-1.022-5.994v-32.15l33.375,42.026h1.362v-43.933c0-2.997,0.273-4.836,0.818-5.654
			c0.885-1.294,2.384-1.975,4.496-1.975h1.839v-1.43h-17.641v1.43h1.771c1.975,0,3.406,0.545,4.359,1.566
			c0.681,0.818,1.022,2.793,1.022,6.062v30.038l-30.923-39.097h-13.759v1.43c1.499,0,2.589,0.068,3.27,0.341
			C486.786,613.562,487.944,614.038,488.693,614.651z"/>
		<path d="M573.358,558.663h-0.885l-11.579,26.292c-0.953,2.316-1.839,3.814-2.724,4.563c-0.409,0.409-1.294,0.681-2.656,0.953
			v0.886h10.353v-0.886c-1.566-0.136-2.588-0.341-3.065-0.749c-0.477-0.341-0.749-0.749-0.749-1.226
			c0-0.681,0.272-1.566,0.817-2.793l2.248-5.04h12.737l1.975,4.564c0.681,1.566,1.022,2.656,1.022,3.269
			c0,0.545-0.272,0.953-0.749,1.362c-0.477,0.341-1.362,0.545-2.657,0.613v0.886h13.01v-0.886c-1.294-0.068-2.384-0.408-3.133-1.09
			c-0.749-0.613-1.566-1.976-2.52-4.155L573.358,558.663z M571.587,566.019l5.585,12.873h-11.307L571.587,566.019z"/>
		<path d="M546.998,615.128c0.954-0.409,2.656-0.545,5.04-0.545h6.13v39.846c0,2.861-0.272,4.768-0.818,5.585
			c-0.954,1.294-2.452,1.975-4.563,1.975h-1.839v1.43h21.524v-1.43h-1.771c-1.975,0-3.406-0.545-4.359-1.566
			c-0.681-0.818-1.022-2.861-1.022-5.994v-39.846h7.152c2.112,0,3.746,0.341,5.04,1.022c1.226,0.749,2.316,1.839,3.065,3.269
			c0.477,0.954,0.886,2.52,1.158,4.632h1.362l-0.545-12.192h-41.344l-0.545,12.192h1.362c0.205-2.316,0.749-4.223,1.703-5.585
			C544.682,616.49,545.772,615.537,546.998,615.128z"/>
		<path d="M428.685,560.297v-0.885h-14.099v0.885h1.158c0.817,0,1.567,0.204,2.248,0.545c0.545,0.273,0.817,0.613,1.022,1.022
			c0.204,0.545,0.272,1.567,0.272,3.201v20.638c0,1.907-0.205,3.133-0.545,3.61c-0.613,0.749-1.635,1.158-2.997,1.158h-1.158v0.886
			h14.099v-0.886h-1.158c-0.886,0-1.567-0.204-2.248-0.545c-0.477-0.341-0.817-0.681-1.022-1.022
			c-0.204-0.545-0.272-1.566-0.272-3.201v-20.638c0-1.907,0.204-3.133,0.613-3.61c0.613-0.818,1.567-1.158,2.929-1.158H428.685z"/>
		<path d="M385.502,613.562c0.954,0.477,1.703,1.09,2.316,1.907c0.341,0.477,1.09,1.907,2.043,4.223l19.003,44.955h1.362
			l17.642-44.41c1.022-2.588,2.179-4.496,3.542-5.721c0.886-0.886,2.248-1.43,4.087-1.771v-1.43h-15.666v1.43l0.681,0.068
			c1.703,0.341,2.929,0.817,3.61,1.43c0.749,0.749,1.09,1.43,1.09,2.179c0,1.158-0.545,3.27-1.771,6.198l-11.92,30.174
			l-12.874-30.583c-1.158-2.725-1.703-4.7-1.703-5.994c0-0.954,0.341-1.703,1.022-2.248c0.681-0.613,2.248-1.022,4.564-1.226v-1.43
			h-20.706v1.43C383.458,612.881,384.684,613.153,385.502,613.562z"/>
		<path d="M460.426,568.743h0.885l-0.885-10.081h-0.885c-0.068,0.817-0.205,1.362-0.409,1.635c-0.205,0.272-0.477,0.409-0.817,0.409
			c-0.341,0-0.885-0.136-1.771-0.477c-1.839-0.681-3.201-1.09-4.155-1.226c-1.022-0.205-2.112-0.341-3.27-0.341
			c-3.337,0-6.198,0.681-8.582,2.043c-2.861,1.703-5.108,4.019-6.811,7.084c-1.362,2.588-2.043,5.245-2.043,8.105
			c0,3.883,1.226,7.288,3.678,10.217c3.337,3.951,8.174,5.926,14.44,5.926c2.384,0,4.359-0.205,6.13-0.681
			c1.771-0.409,3.61-1.158,5.517-2.112v-9.808c0-1.635,0.136-2.793,0.477-3.406c0.477-0.818,1.294-1.226,2.588-1.226h0.613v-0.885
			h-12.737v0.885c1.362,0,2.248,0.136,2.725,0.409c0.477,0.205,0.953,0.613,1.158,1.09c0.272,0.545,0.409,1.635,0.409,3.133v9.263
			c-1.09,0.613-2.18,1.022-3.269,1.294c-1.09,0.341-2.248,0.477-3.542,0.477c-2.112,0-4.087-0.613-6.062-1.771
			c-1.907-1.158-3.542-2.997-4.768-5.517c-1.158-2.52-1.839-5.313-1.839-8.31c0-3.746,0.954-6.947,2.725-9.74
			c2.248-3.201,5.449-4.768,9.604-4.768c2.997,0,5.585,0.885,7.561,2.725C458.451,564.316,459.541,566.223,460.426,568.743z"/>
		<path d="M439.788,612.744c2.043,0,3.542,0.477,4.427,1.499c0.681,0.817,0.953,2.861,0.953,6.13v33.852
			c0,2.589-0.136,4.223-0.409,5.04c-0.272,0.886-0.818,1.499-1.635,1.839c-1.022,0.613-2.18,0.885-3.337,0.885h-1.839v1.43h39.029
			l4.359-13.078h-1.499c-1.635,3.269-3.269,5.653-4.7,7.22c-1.158,1.158-2.452,1.976-3.746,2.384
			c-1.226,0.409-3.27,0.613-6.267,0.613h-8.582c-1.362,0-2.316-0.136-2.861-0.409c-0.477-0.272-0.818-0.681-1.022-1.226
			c-0.205-0.477-0.272-1.839-0.272-4.155v-17.233h11.102c2.112,0,3.678,0.272,4.7,0.818c1.022,0.477,1.771,1.226,2.248,2.112
			c0.341,0.681,0.681,2.316,1.022,4.836h1.362v-18.118h-1.362c-0.136,2.997-0.886,5.109-2.18,6.198
			c-1.022,0.954-2.929,1.362-5.79,1.362h-11.102v-20.57h13.895c2.52,0,4.291,0.204,5.245,0.545c1.294,0.545,2.18,1.294,2.793,2.384
			c0.681,1.022,1.226,2.861,1.771,5.585h1.43l-0.545-11.375h-39.029v1.43H439.788z"/>
		<path d="M488.527,685.898v1.09h1.43c0.954,0,1.839,0.272,2.725,0.749c0.545,0.272,0.954,0.749,1.158,1.226
			c0.272,0.681,0.409,2.043,0.409,4.087v26.088c0,2.384-0.205,3.882-0.681,4.563c-0.818,0.954-1.975,1.43-3.61,1.43h-1.43v1.09
			h17.164v-1.09h-1.498c-0.886,0-1.839-0.204-2.657-0.681c-0.613-0.409-1.022-0.818-1.226-1.294
			c-0.272-0.613-0.409-1.975-0.409-4.019V693.05c0-2.452,0.272-3.95,0.749-4.563c0.749-1.022,1.907-1.499,3.542-1.499h1.498v-1.09
			H488.527z"/>
		<path d="M508.144,685.898v1.09c1.566,0,2.793,0.204,3.542,0.613c0.749,0.341,1.226,0.817,1.498,1.43
			c0.409,0.749,0.613,2.043,0.613,3.883v26.36c0,2.248-0.204,3.746-0.681,4.291c-0.681,1.09-1.907,1.566-3.542,1.566h-1.43v1.09
			h13.895v-1.09h-1.43c-1.567,0-2.725-0.341-3.406-1.226c-0.545-0.613-0.817-2.18-0.817-4.632V692.3l15.461,33.921h0.954
			l15.393-33.921v26.973c0,2.248-0.204,3.746-0.613,4.291c-0.681,1.09-1.907,1.566-3.61,1.566h-1.43v1.09h17.028v-1.09h-1.43
			c-1.566,0-2.725-0.341-3.406-1.226c-0.613-0.613-0.885-2.18-0.885-4.632v-26.36c0-2.248,0.204-3.678,0.681-4.359
			c0.681-1.022,1.907-1.566,3.61-1.566h1.43v-1.09h-11.375l-14.236,31.604l-14.508-31.604H508.144z"/>
		<path d="M380.892,686.988h1.43c1.635,0,2.861,0.409,3.542,1.226c0.545,0.545,0.749,2.112,0.749,4.7v26.224
			c0,2.043-0.068,3.269-0.341,3.882c-0.204,0.681-0.613,1.158-1.226,1.43c-0.886,0.477-1.771,0.681-2.725,0.681h-1.43v1.09h30.855
			l3.406-10.081h-1.158c-1.294,2.452-2.52,4.291-3.746,5.585c-0.886,0.885-1.907,1.499-2.929,1.839
			c-1.09,0.341-2.725,0.477-4.972,0.477h-6.743c-1.09,0-1.839-0.068-2.248-0.341c-0.341-0.204-0.681-0.545-0.817-0.885
			c-0.136-0.409-0.205-1.499-0.205-3.27v-13.35h8.719c1.703,0,2.929,0.204,3.746,0.613c0.749,0.409,1.362,0.953,1.771,1.635
			c0.272,0.681,0.545,1.907,0.817,3.814h1.09v-14.1h-1.09c-0.136,2.316-0.749,3.951-1.703,4.836
			c-0.817,0.681-2.316,1.022-4.632,1.022h-8.719v-15.938h10.966c1.907,0,3.27,0.136,4.087,0.477
			c1.022,0.341,1.771,0.954,2.248,1.839c0.545,0.749,0.953,2.18,1.362,4.359h1.158l-0.409-8.855h-30.855V686.988z"/>
		<path d="M398.193,672.752l-3.065,10.285h1.022l8.651-10.285H398.193z"/>
		<path d="M453.108,695.365c0.136-1.839,0.545-3.269,1.294-4.359c0.749-1.09,1.635-1.771,2.656-2.179
			c0.749-0.273,2.112-0.409,3.95-0.409h4.768v30.855c0,2.248-0.204,3.746-0.613,4.291c-0.681,1.09-1.907,1.566-3.61,1.566h-1.43
			v1.09h16.96v-1.09h-1.362c-1.566,0-2.725-0.341-3.474-1.226c-0.545-0.613-0.817-2.18-0.817-4.632v-30.855h5.653
			c1.635,0,2.997,0.272,4.019,0.817c1.022,0.545,1.771,1.43,2.384,2.52c0.409,0.749,0.681,1.907,0.886,3.61h1.158l-0.477-9.468
			h-32.626l-0.409,9.468H453.108z"/>
		<path d="M569.377,690.257c-4.291,4.019-6.471,9.263-6.471,15.666c0,6.267,1.907,11.375,5.654,15.325
			c3.746,3.951,8.378,5.926,13.827,5.926c5.449,0,10.081-2.043,13.963-6.062c3.814-4.087,5.721-9.195,5.721-15.257
			c0-5.926-1.907-10.898-5.721-14.917c-3.746-3.95-8.242-5.926-13.486-5.926C577.687,685.012,573.192,686.715,569.377,690.257z
			 M569.65,705.787c0-6.403,1.362-11.239,4.087-14.644c2.112-2.656,4.972-4.019,8.582-4.019c3.814,0,6.811,1.362,8.991,4.087
			c2.656,3.337,4.019,8.514,4.019,15.393c0,6.403-1.226,11.034-3.678,14.031c-2.452,2.929-5.517,4.427-9.263,4.427
			c-3.542,0-6.403-1.362-8.514-4.087C571.08,717.434,569.65,712.394,569.65,705.787z"/>
		<path d="M320.34,682.969c0.204-0.613,0.954-1.09,2.248-1.43v-0.477h-7.084v0.545c1.362,0.204,2.248,0.613,2.588,1.362v17.301
			c-0.545,0.954-1.294,1.499-2.248,1.635l0.068,0.681l12.941-0.204l2.112-2.248c0.408-0.885,0.408-1.566,0-1.907
			c-1.226,1.43-3.133,2.52-5.722,3.133h-3.133c-1.09,0.136-1.703-0.341-1.771-1.294V682.969z"/>
		<path d="M277.088,680.994c-0.273,0.204-0.341,0.408-0.136,0.681c1.158,0.204,1.975,0.749,2.384,1.635v17.164
			c-0.341,0.954-1.09,1.499-2.043,1.635v0.477c3.678,0.068,7.424,0,11.171-0.272c2.452-0.272,4.632-1.499,6.607-3.542
			c2.384-3.406,2.725-7.56,1.158-12.465c-1.158-2.52-3.951-4.359-8.31-5.313H277.088z M282.877,681.743h4.019
			c4.019,1.158,6.539,3.338,7.629,6.539c0.545,2.384,0.681,4.768,0.273,7.22c-0.545,2.043-1.567,3.678-3.133,4.836
			c-1.498,1.09-3.337,1.566-5.449,1.566c-2.52-0.341-4.019-0.953-4.427-1.839v-17.165C282.06,682.356,282.4,681.947,282.877,681.743
			z"/>
		<path d="M487.808,586.793c0.408-1.022,0.272-1.498-0.341-1.43c-3.201,2.929-7.22,4.427-12.193,4.632
			c-2.384-0.068-3.61-0.613-3.746-1.635v-25.202c0.341-1.362,1.43-2.248,3.201-2.589c0.204-0.272,0.136-0.613,0-0.954h-10.353
			c-0.272,0.341-0.204,0.681,0.273,0.954c1.907,0.613,2.997,1.226,3.337,1.771v26.701c-0.613,0.749-1.362,1.362-2.384,1.703
			c-0.818,0.341-1.09,0.613-0.818,0.885l18.936-0.272C485.492,590.88,486.854,589.382,487.808,586.793z"/>
		<g>
			<path d="M417.567,685.693h15.117c4.945,0,8.859,1.066,11.744,3.199c2.884,2.133,4.327,4.884,4.327,8.255
				c0,3.348-1.26,5.922-3.779,7.722c-2.52,1.8-6.134,2.7-10.843,2.7c-1.814,0-3.932-0.138-6.357-0.413v11.303
				c0,2.436,0.336,4.113,1.006,5.032c0.671,0.919,1.901,1.378,3.691,1.378v1.17h-14.905v-1.17c1.789,0,3.02-0.481,3.691-1.445
				c0.671-0.964,1.006-2.571,1.006-4.82V693.3c0-2.41-0.336-4.085-1.006-5.026c-0.671-0.941-1.902-1.412-3.691-1.412V685.693z
				 M432.896,687.241h-5.121v18.092c1.389,0.459,3.096,0.688,5.121,0.688c3.108,0,5.563-0.78,7.364-2.339
				c1.801-1.559,2.702-3.692,2.702-6.398c0-2.912-0.895-5.314-2.684-7.206C438.488,688.187,436.027,687.241,432.896,687.241z"/>
		</g>
	</g>
</g>
</svg>
